<?xml version="1.0" encoding="UTF-8" standalone="no"?>
<!DOCTYPE svg PUBLIC "-//W3C//DTD SVG 1.1//EN"
 "http://www.w3.org/Graphics/SVG/1.1/DTD/svg11.dtd">
<!-- Generated by graphviz version 2.44.0 (0)
 -->
<!-- Title: g Pages: 1 -->
<svg width="923pt" height="360pt"
 viewBox="0.00 0.00 923.00 360.00" xmlns="http://www.w3.org/2000/svg" xmlns:xlink="http://www.w3.org/1999/xlink">
<g id="graph0" class="graph" transform="scale(1 1) rotate(0) translate(4 356)">
<title>g</title>
<polygon fill="white" stroke="transparent" points="-4,4 -4,-356 919,-356 919,4 -4,4"/>
<g id="clust1" class="cluster">
<title>cluster_0</title>
<polygon fill="lightgrey" stroke="lightgrey" points="8,-8 8,-344 496,-344 496,-8 8,-8"/>
<text text-anchor="middle" x="252" y="-328.8" font-family="Times-Roman" font-size="14.00">schema</text>
</g>
<g id="clust2" class="cluster">
<title>cluster_1</title>
<polygon fill="lightgrey" stroke="lightgrey" points="504,-139 504,-329.5 907,-329.5 907,-139 504,-139"/>
<text text-anchor="middle" x="705.5" y="-314.3" font-family="Times-Roman" font-size="14.00">data</text>
</g>
<!-- schemaRoot -->
<g id="node1" class="node">
<title>schemaRoot</title>
<polygon fill="none" stroke="black" points="81,-287.5 81,-308.5 424,-308.5 424,-287.5 81,-287.5"/>
<text text-anchor="start" x="218.5" y="-294.3" font-family="Times-Roman" font-size="14.00">schemaId</text>
<polygon fill="none" stroke="black" points="81,-251.5 81,-287.5 424,-287.5 424,-251.5 81,-251.5"/>
<text text-anchor="start" x="188" y="-273.3" font-family="Times-Roman" font-size="14.00">@type=ls:Schema</text>
<text text-anchor="start" x="84" y="-258.3" font-family="Times-Roman" font-size="14.00"> &#160;ls:targetType=https://example.org/SomeObject</text>
</g>
<!-- layerRoot -->
<g id="node2" class="node">
<title>layerRoot</title>
<polygon fill="none" stroke="black" points="25,-172 25,-193 480,-193 480,-172 25,-172"/>
<text text-anchor="start" x="228" y="-178.8" font-family="Times-Roman" font-size="14.00">layerId</text>
<polygon fill="none" stroke="black" points="25,-151 25,-172 480,-172 480,-151 25,-151"/>
<text text-anchor="start" x="28" y="-157.8" font-family="Times-Roman" font-size="14.00">@type=[ls:Attribute, ls:Object, https://example.org/SomeObject]</text>
</g>
<!-- schemaRoot&#45;&gt;layerRoot -->
<g id="edge1" class="edge">
<title>schemaRoot&#45;&gt;layerRoot</title>
<path fill="none" stroke="black" d="M252,-247.83C252,-235.06 252,-220.3 252,-207.27"/>
<polygon fill="black" stroke="black" points="255.5,-207.27 252,-197.27 248.5,-207.27 255.5,-207.27"/>
<text text-anchor="middle" x="277.5" y="-218.8" font-family="Times-Roman" font-size="14.00">ls:layer</text>
</g>
<!-- attribute1 -->
<g id="node3" class="node">
<title>attribute1</title>
<polygon fill="none" stroke="black" points="26,-71 26,-92 236,-92 236,-71 26,-71"/>
<text text-anchor="start" x="114" y="-77.8" font-family="Times-Roman" font-size="14.00">attr1</text>
<polygon fill="none" stroke="black" points="26,-20 26,-71 236,-71 236,-20 26,-20"/>
<text text-anchor="start" x="29" y="-56.8" font-family="Times-Roman" font-size="14.00">@type=[ls:Attribute,ls:Value]</text>
<text text-anchor="start" x="46" y="-41.8" font-family="Times-Roman" font-size="14.00"> &#160;attributeName=name1</text>
<text text-anchor="start" x="51.5" y="-26.8" font-family="Times-Roman" font-size="14.00"> &#160;attributeType=string </text>
</g>
<!-- layerRoot&#45;&gt;attribute1 -->
<g id="edge2" class="edge">
<title>layerRoot&#45;&gt;attribute1</title>
<path fill="none" stroke="black" d="M195.85,-146.84C187.29,-141.71 178.99,-135.76 172,-129 164.79,-122.03 158.46,-113.51 153.07,-104.81"/>
<polygon fill="black" stroke="black" points="156.05,-102.97 148,-96.09 150,-106.49 156.05,-102.97"/>
<text text-anchor="middle" x="241" y="-117.8" font-family="Times-Roman" font-size="14.00">ls:object#attributes</text>
</g>
<!-- attribute2 -->
<g id="node4" class="node">
<title>attribute2</title>
<polygon fill="none" stroke="black" points="270,-71 270,-92 480,-92 480,-71 270,-71"/>
<text text-anchor="start" x="358" y="-77.8" font-family="Times-Roman" font-size="14.00">attr2</text>
<polygon fill="none" stroke="black" points="270,-20 270,-71 480,-71 480,-20 270,-20"/>
<text text-anchor="start" x="273" y="-56.8" font-family="Times-Roman" font-size="14.00">@type=[ls:Attribute,ls:Value]</text>
<text text-anchor="start" x="290" y="-41.8" font-family="Times-Roman" font-size="14.00"> &#160;attributeName=name2</text>
<text text-anchor="start" x="290.5" y="-26.8" font-family="Times-Roman" font-size="14.00"> &#160;attributeType=number</text>
</g>
<!-- layerRoot&#45;&gt;attribute2 -->
<g id="edge3" class="edge">
<title>layerRoot&#45;&gt;attribute2</title>
<path fill="none" stroke="black" d="M287.88,-146.82C295.42,-141.25 303.15,-135.15 310,-129 318.63,-121.26 327.31,-112.47 335.4,-103.76"/>
<polygon fill="black" stroke="black" points="338.19,-105.91 342.34,-96.16 333.02,-101.19 338.19,-105.91"/>
<text text-anchor="middle" x="394" y="-117.8" font-family="Times-Roman" font-size="14.00">ls:object#attributes</text>
</g>
<!-- obj -->
<g id="node5" class="node">
<title>obj</title>
<polygon fill="none" stroke="black" points="525,-269.5 525,-290.5 553,-290.5 553,-269.5 525,-269.5"/>
<text text-anchor="start" x="528" y="-276.3" font-family="Times-Roman" font-size="14.00">obj</text>
</g>
<!-- obj&#45;&gt;layerRoot -->
<g id="edge6" class="edge">
<title>obj&#45;&gt;layerRoot</title>
<path fill="none" stroke="black" d="M521.67,-262.29C515.33,-256.91 507.79,-251.48 500,-248 454.37,-227.62 437.07,-243.69 389,-230 362.86,-222.55 335,-211.57 311.28,-201.22"/>
<polygon fill="black" stroke="black" points="312.62,-197.99 302.06,-197.14 309.79,-204.39 312.62,-197.99"/>
<text text-anchor="middle" x="456" y="-218.8" font-family="Times-Roman" font-size="14.00">ls:data#instanceOf</text>
</g>
<!-- a1 -->
<g id="node6" class="node">
<title>a1</title>
<polygon fill="none" stroke="black" points="521,-172 521,-193 638,-193 638,-172 521,-172"/>
<text text-anchor="start" x="542.5" y="-178.8" font-family="Times-Roman" font-size="14.00">obj.name1</text>
<polygon fill="none" stroke="black" points="521,-151 521,-172 638,-172 638,-151 521,-151"/>
<text text-anchor="start" x="524" y="-157.8" font-family="Times-Roman" font-size="14.00">@value=value1</text>
</g>
<!-- obj&#45;&gt;a1 -->
<g id="edge4" class="edge">
<title>obj&#45;&gt;a1</title>
<path fill="none" stroke="black" d="M532.07,-262.32C527.75,-248.87 524.19,-230 531,-215 532.65,-211.36 534.79,-207.91 537.25,-204.67"/>
<polygon fill="black" stroke="black" points="539.96,-206.89 543.92,-197.07 534.69,-202.28 539.96,-206.89"/>
<text text-anchor="middle" x="617.5" y="-218.8" font-family="Times-Roman" font-size="14.00">ls:data/object#attributes</text>
</g>
<!-- a2 -->
<g id="node7" class="node">
<title>a2</title>
<polygon fill="none" stroke="black" points="672,-172 672,-193 789,-193 789,-172 672,-172"/>
<text text-anchor="start" x="693.5" y="-178.8" font-family="Times-Roman" font-size="14.00">obj.name2</text>
<polygon fill="none" stroke="black" points="672,-151 672,-172 789,-172 789,-151 672,-151"/>
<text text-anchor="start" x="675" y="-157.8" font-family="Times-Roman" font-size="14.00">@value=value2</text>
</g>
<!-- obj&#45;&gt;a2 -->
<g id="edge5" class="edge">
<title>obj&#45;&gt;a2</title>
<path fill="none" stroke="black" d="M566.26,-278.1C601.93,-274.9 664.55,-264.4 704,-230 711.09,-223.82 716.35,-215.31 720.22,-206.75"/>
<polygon fill="black" stroke="black" points="723.58,-207.78 724.01,-197.19 717.07,-205.2 723.58,-207.78"/>
<text text-anchor="middle" x="801.5" y="-218.8" font-family="Times-Roman" font-size="14.00">ls:data/object#attributes</text>
</g>
<!-- a1&#45;&gt;attribute1 -->
<g id="edge7" class="edge">
<title>a1&#45;&gt;attribute1</title>
<path fill="none" stroke="black" d="M540.88,-146.93C519.89,-134.9 492.92,-121.38 467,-114 378.25,-88.73 348.58,-112.93 254.06,-96"/>
<polygon fill="black" stroke="black" points="254.57,-92.53 244.09,-94.11 253.26,-99.41 254.57,-92.53"/>
<text text-anchor="middle" x="572" y="-117.8" font-family="Times-Roman" font-size="14.00">ls:data#instanceOf</text>
</g>
<!-- a2&#45;&gt;attribute2 -->
<g id="edge8" class="edge">
<title>a2&#45;&gt;attribute2</title>
<path fill="none" stroke="black" d="M712.86,-146.76C703.33,-135.07 690.48,-121.9 676,-114 621.95,-84.48 555.21,-70.01 498.32,-63"/>
<polygon fill="black" stroke="black" points="498.52,-59.5 488.18,-61.82 497.71,-66.46 498.52,-59.5"/>
<text text-anchor="middle" x="761" y="-117.8" font-family="Times-Roman" font-size="14.00">ls:data#instanceOf</text>
</g>
</g>
</svg>
