<?xml version="1.0" encoding="UTF-8" standalone="no"?>
<!DOCTYPE svg PUBLIC "-//W3C//DTD SVG 1.1//EN"
 "http://www.w3.org/Graphics/SVG/1.1/DTD/svg11.dtd">
<!-- Generated by graphviz version 2.44.0 (0)
 -->
<!-- Title: g Pages: 1 -->
<svg width="981pt" height="375pt"
 viewBox="0.00 0.00 981.00 375.00" xmlns="http://www.w3.org/2000/svg" xmlns:xlink="http://www.w3.org/1999/xlink">
<g id="graph0" class="graph" transform="scale(1 1) rotate(0) translate(4 371)">
<title>g</title>
<polygon fill="white" stroke="transparent" points="-4,4 -4,-371 977,-371 977,4 -4,4"/>
<g id="clust1" class="cluster">
<title>cluster_0</title>
<polygon fill="lightgrey" stroke="lightgrey" points="8,-8 8,-359 496,-359 496,-8 8,-8"/>
<text text-anchor="middle" x="252" y="-343.8" font-family="Times-Roman" font-size="14.00">schema</text>
</g>
<g id="clust2" class="cluster">
<title>cluster_1</title>
<polygon fill="lightgrey" stroke="lightgrey" points="504,-139 504,-344.5 965,-344.5 965,-139 504,-139"/>
<text text-anchor="middle" x="734.5" y="-329.3" font-family="Times-Roman" font-size="14.00">data</text>
</g>
<!-- schemaRoot -->
<g id="node1" class="node">
<title>schemaRoot</title>
<polygon fill="none" stroke="black" points="81,-302.5 81,-323.5 424,-323.5 424,-302.5 81,-302.5"/>
<text text-anchor="start" x="218.5" y="-309.3" font-family="Times-Roman" font-size="14.00">schemaId</text>
<polygon fill="none" stroke="black" points="81,-266.5 81,-302.5 424,-302.5 424,-266.5 81,-266.5"/>
<text text-anchor="start" x="188" y="-288.3" font-family="Times-Roman" font-size="14.00">@type=ls:Schema</text>
<text text-anchor="start" x="84" y="-273.3" font-family="Times-Roman" font-size="14.00"> &#160;ls:targetType=https://example.org/SomeObject</text>
</g>
<!-- layerRoot -->
<g id="node2" class="node">
<title>layerRoot</title>
<polygon fill="none" stroke="black" points="25,-179.5 25,-200.5 480,-200.5 480,-179.5 25,-179.5"/>
<text text-anchor="start" x="228" y="-186.3" font-family="Times-Roman" font-size="14.00">layerId</text>
<polygon fill="none" stroke="black" points="25,-158.5 25,-179.5 480,-179.5 480,-158.5 25,-158.5"/>
<text text-anchor="start" x="28" y="-165.3" font-family="Times-Roman" font-size="14.00">@type=[ls:Attribute, ls:Object, https://example.org/SomeObject]</text>
</g>
<!-- schemaRoot&#45;&gt;layerRoot -->
<g id="edge1" class="edge">
<title>schemaRoot&#45;&gt;layerRoot</title>
<path fill="none" stroke="black" d="M252,-262.74C252,-247.86 252,-230.11 252,-214.91"/>
<polygon fill="black" stroke="black" points="255.5,-214.86 252,-204.86 248.5,-214.86 255.5,-214.86"/>
<text text-anchor="middle" x="277.5" y="-233.8" font-family="Times-Roman" font-size="14.00">ls:layer</text>
</g>
<!-- attribute1 -->
<g id="node3" class="node">
<title>attribute1</title>
<polygon fill="none" stroke="black" points="26,-71 26,-92 236,-92 236,-71 26,-71"/>
<text text-anchor="start" x="114" y="-77.8" font-family="Times-Roman" font-size="14.00">attr1</text>
<polygon fill="none" stroke="black" points="26,-20 26,-71 236,-71 236,-20 26,-20"/>
<text text-anchor="start" x="29" y="-56.8" font-family="Times-Roman" font-size="14.00">@type=[ls:Attribute,ls:Value]</text>
<text text-anchor="start" x="46" y="-41.8" font-family="Times-Roman" font-size="14.00"> &#160;attributeName=name1</text>
<text text-anchor="start" x="51.5" y="-26.8" font-family="Times-Roman" font-size="14.00"> &#160;attributeType=string </text>
</g>
<!-- layerRoot&#45;&gt;attribute1 -->
<g id="edge2" class="edge">
<title>layerRoot&#45;&gt;attribute1</title>
<path fill="none" stroke="black" d="M207.07,-154.42C195.83,-147.16 184.33,-138.55 175,-129 168.01,-121.85 161.62,-113.4 156.01,-104.84"/>
<polygon fill="black" stroke="black" points="158.93,-102.91 150.66,-96.29 153,-106.63 158.93,-102.91"/>
<text text-anchor="middle" x="244" y="-117.8" font-family="Times-Roman" font-size="14.00">ls:object#attributes</text>
</g>
<!-- attribute2 -->
<g id="node4" class="node">
<title>attribute2</title>
<polygon fill="none" stroke="black" points="270,-71 270,-92 480,-92 480,-71 270,-71"/>
<text text-anchor="start" x="358" y="-77.8" font-family="Times-Roman" font-size="14.00">attr2</text>
<polygon fill="none" stroke="black" points="270,-20 270,-71 480,-71 480,-20 270,-20"/>
<text text-anchor="start" x="273" y="-56.8" font-family="Times-Roman" font-size="14.00">@type=[ls:Attribute,ls:Value]</text>
<text text-anchor="start" x="290" y="-41.8" font-family="Times-Roman" font-size="14.00"> &#160;attributeName=name2</text>
<text text-anchor="start" x="290.5" y="-26.8" font-family="Times-Roman" font-size="14.00"> &#160;attributeType=number</text>
</g>
<!-- layerRoot&#45;&gt;attribute2 -->
<g id="edge3" class="edge">
<title>layerRoot&#45;&gt;attribute2</title>
<path fill="none" stroke="black" d="M283.95,-154.35C293.59,-146.59 304,-137.74 313,-129 320.97,-121.26 329.04,-112.6 336.61,-104.05"/>
<polygon fill="black" stroke="black" points="339.47,-106.1 343.4,-96.26 334.19,-101.5 339.47,-106.1"/>
<text text-anchor="middle" x="396" y="-117.8" font-family="Times-Roman" font-size="14.00">ls:object#attributes</text>
</g>
<!-- obj -->
<g id="node5" class="node">
<title>obj</title>
<polygon fill="none" stroke="black" points="574,-284.5 574,-305.5 602,-305.5 602,-284.5 574,-284.5"/>
<text text-anchor="start" x="577" y="-291.3" font-family="Times-Roman" font-size="14.00">obj</text>
</g>
<!-- obj&#45;&gt;layerRoot -->
<g id="edge6" class="edge">
<title>obj&#45;&gt;layerRoot</title>
<path fill="none" stroke="black" d="M560.71,-284.55C543.36,-278.27 520.4,-270.04 500,-263 445.33,-244.12 383.61,-223.59 335.43,-207.73"/>
<polygon fill="black" stroke="black" points="336.26,-204.32 325.67,-204.52 334.07,-210.97 336.26,-204.32"/>
<text text-anchor="middle" x="512" y="-233.8" font-family="Times-Roman" font-size="14.00">ls:data#instanceOf</text>
</g>
<!-- a1 -->
<g id="node6" class="node">
<title>a1</title>
<polygon fill="none" stroke="black" points="521,-186.5 521,-207.5 718,-207.5 718,-186.5 521,-186.5"/>
<text text-anchor="start" x="582.5" y="-193.3" font-family="Times-Roman" font-size="14.00">obj.name1</text>
<polygon fill="none" stroke="black" points="521,-150.5 521,-186.5 718,-186.5 718,-150.5 521,-150.5"/>
<text text-anchor="start" x="524" y="-172.3" font-family="Times-Roman" font-size="14.00">@type=[ls:DocumentNode]</text>
<text text-anchor="start" x="557.5" y="-157.3" font-family="Times-Roman" font-size="14.00"> &#160;&#160;@value=value1</text>
</g>
<!-- obj&#45;&gt;a1 -->
<g id="edge4" class="edge">
<title>obj&#45;&gt;a1</title>
<path fill="none" stroke="black" d="M585.87,-277.44C584.79,-264.23 584.51,-245.61 589,-230 589.85,-227.05 590.92,-224.11 592.15,-221.2"/>
<polygon fill="black" stroke="black" points="595.34,-222.64 596.54,-212.11 589.04,-219.59 595.34,-222.64"/>
<text text-anchor="middle" x="675.5" y="-233.8" font-family="Times-Roman" font-size="14.00">ls:data/object#attributes</text>
</g>
<!-- a2 -->
<g id="node7" class="node">
<title>a2</title>
<polygon fill="none" stroke="black" points="752,-186.5 752,-207.5 949,-207.5 949,-186.5 752,-186.5"/>
<text text-anchor="start" x="813.5" y="-193.3" font-family="Times-Roman" font-size="14.00">obj.name2</text>
<polygon fill="none" stroke="black" points="752,-150.5 752,-186.5 949,-186.5 949,-150.5 752,-150.5"/>
<text text-anchor="start" x="755" y="-172.3" font-family="Times-Roman" font-size="14.00">@type=[ls:DocumentNode]</text>
<text text-anchor="start" x="788.5" y="-157.3" font-family="Times-Roman" font-size="14.00"> &#160;&#160;@value=value2</text>
</g>
<!-- obj&#45;&gt;a2 -->
<g id="edge5" class="edge">
<title>obj&#45;&gt;a2</title>
<path fill="none" stroke="black" d="M615.01,-289.91C650.17,-283.25 712.91,-269.01 762,-245 776.8,-237.76 791.69,-228 804.92,-218.27"/>
<polygon fill="black" stroke="black" points="807.04,-221.05 812.92,-212.23 802.83,-215.46 807.04,-221.05"/>
<text text-anchor="middle" x="873.5" y="-233.8" font-family="Times-Roman" font-size="14.00">ls:data/object#attributes</text>
</g>
<!-- a1&#45;&gt;attribute1 -->
<g id="edge7" class="edge">
<title>a1&#45;&gt;attribute1</title>
<path fill="none" stroke="black" d="M557.8,-146.86C531.2,-134.52 499.25,-121.55 469,-114 378.64,-91.44 349.42,-113.24 254.15,-96.02"/>
<polygon fill="black" stroke="black" points="254.57,-92.54 244.09,-94.11 253.26,-99.42 254.57,-92.54"/>
<text text-anchor="middle" x="578" y="-117.8" font-family="Times-Roman" font-size="14.00">ls:data#instanceOf</text>
</g>
<!-- a2&#45;&gt;attribute2 -->
<g id="edge8" class="edge">
<title>a2&#45;&gt;attribute2</title>
<path fill="none" stroke="black" d="M786.78,-146.99C761,-135.19 730.59,-122.59 702,-114 636,-94.18 560.3,-80.43 498.37,-71.42"/>
<polygon fill="black" stroke="black" points="498.55,-67.91 488.16,-69.96 497.56,-74.84 498.55,-67.91"/>
<text text-anchor="middle" x="810" y="-117.8" font-family="Times-Roman" font-size="14.00">ls:data#instanceOf</text>
</g>
</g>
</svg>
