<?xml version="1.0" encoding="UTF-8" standalone="no"?>
<!DOCTYPE svg PUBLIC "-//W3C//DTD SVG 1.1//EN"
 "http://www.w3.org/Graphics/SVG/1.1/DTD/svg11.dtd">
<!-- Generated by graphviz version 2.44.0 (0)
 -->
<!-- Title: g Pages: 1 -->
<svg width="487pt" height="305pt"
 viewBox="0.00 0.00 486.50 305.00" xmlns="http://www.w3.org/2000/svg" xmlns:xlink="http://www.w3.org/1999/xlink">
<g id="graph0" class="graph" transform="scale(1 1) rotate(0) translate(4 301)">
<title>g</title>
<polygon fill="white" stroke="transparent" points="-4,4 -4,-301 482.5,-301 482.5,4 -4,4"/>
<!-- schemaRoot -->
<g id="node1" class="node">
<title>schemaRoot</title>
<polygon fill="none" stroke="black" points="64.5,-271.5 64.5,-292.5 407.5,-292.5 407.5,-271.5 64.5,-271.5"/>
<text text-anchor="start" x="202" y="-278.3" font-family="Times-Roman" font-size="14.00">schemaId</text>
<polygon fill="none" stroke="black" points="64.5,-235.5 64.5,-271.5 407.5,-271.5 407.5,-235.5 64.5,-235.5"/>
<text text-anchor="start" x="171.5" y="-257.3" font-family="Times-Roman" font-size="14.00">@type=ls:Schema</text>
<text text-anchor="start" x="67.5" y="-242.3" font-family="Times-Roman" font-size="14.00"> &#160;ls:targetType=https://example.org/SomeObject</text>
</g>
<!-- layerRoot -->
<g id="node2" class="node">
<title>layerRoot</title>
<polygon fill="none" stroke="black" points="8.5,-156 8.5,-177 463.5,-177 463.5,-156 8.5,-156"/>
<text text-anchor="start" x="211.5" y="-162.8" font-family="Times-Roman" font-size="14.00">layerId</text>
<polygon fill="none" stroke="black" points="8.5,-135 8.5,-156 463.5,-156 463.5,-135 8.5,-135"/>
<text text-anchor="start" x="11.5" y="-141.8" font-family="Times-Roman" font-size="14.00">@type=[ls:Attribute, ls:Object, https://example.org/SomeObject]</text>
</g>
<!-- schemaRoot&#45;&gt;layerRoot -->
<g id="edge1" class="edge">
<title>schemaRoot&#45;&gt;layerRoot</title>
<path fill="none" stroke="black" d="M235.5,-231.83C235.5,-219.06 235.5,-204.3 235.5,-191.27"/>
<polygon fill="black" stroke="black" points="239,-191.27 235.5,-181.27 232,-191.27 239,-191.27"/>
<text text-anchor="middle" x="261" y="-202.8" font-family="Times-Roman" font-size="14.00">ls:layer</text>
</g>
<!-- attribute1 -->
<g id="node3" class="node">
<title>attribute1</title>
<polygon fill="none" stroke="black" points="8.5,-55 8.5,-76 218.5,-76 218.5,-55 8.5,-55"/>
<text text-anchor="start" x="96.5" y="-61.8" font-family="Times-Roman" font-size="14.00">attr1</text>
<polygon fill="none" stroke="black" points="8.5,-4 8.5,-55 218.5,-55 218.5,-4 8.5,-4"/>
<text text-anchor="start" x="11.5" y="-40.8" font-family="Times-Roman" font-size="14.00">@type=[ls:Attribute,ls:Value]</text>
<text text-anchor="start" x="28.5" y="-25.8" font-family="Times-Roman" font-size="14.00"> &#160;attributeName=name1</text>
<text text-anchor="start" x="34" y="-10.8" font-family="Times-Roman" font-size="14.00"> &#160;attributeType=string </text>
</g>
<!-- layerRoot&#45;&gt;attribute1 -->
<g id="edge2" class="edge">
<title>layerRoot&#45;&gt;attribute1</title>
<path fill="none" stroke="black" d="M209.63,-130.82C196.16,-118.24 179.23,-102.42 163.35,-87.58"/>
<polygon fill="black" stroke="black" points="165.35,-84.66 155.66,-80.39 160.57,-89.78 165.35,-84.66"/>
<text text-anchor="middle" x="258.5" y="-101.8" font-family="Times-Roman" font-size="14.00">ls:object#attributes</text>
</g>
<!-- attribute2 -->
<g id="node4" class="node">
<title>attribute2</title>
<polygon fill="none" stroke="black" points="252.5,-55 252.5,-76 462.5,-76 462.5,-55 252.5,-55"/>
<text text-anchor="start" x="340.5" y="-61.8" font-family="Times-Roman" font-size="14.00">attr2</text>
<polygon fill="none" stroke="black" points="252.5,-4 252.5,-55 462.5,-55 462.5,-4 252.5,-4"/>
<text text-anchor="start" x="255.5" y="-40.8" font-family="Times-Roman" font-size="14.00">@type=[ls:Attribute,ls:Value]</text>
<text text-anchor="start" x="272.5" y="-25.8" font-family="Times-Roman" font-size="14.00"> &#160;attributeName=name2</text>
<text text-anchor="start" x="273" y="-10.8" font-family="Times-Roman" font-size="14.00"> &#160;attributeType=number</text>
</g>
<!-- layerRoot&#45;&gt;attribute2 -->
<g id="edge3" class="edge">
<title>layerRoot&#45;&gt;attribute2</title>
<path fill="none" stroke="black" d="M308.43,-130.93C316.93,-125.96 324.91,-120.04 331.5,-113 337.7,-106.37 342.45,-98.16 346.07,-89.67"/>
<polygon fill="black" stroke="black" points="349.44,-90.64 349.7,-80.05 342.9,-88.17 349.44,-90.64"/>
<text text-anchor="middle" x="409.5" y="-101.8" font-family="Times-Roman" font-size="14.00">ls:object#attributes</text>
</g>
</g>
</svg>
