<?xml version="1.0" encoding="UTF-8" standalone="no"?>
<!DOCTYPE svg PUBLIC "-//W3C//DTD SVG 1.1//EN"
 "http://www.w3.org/Graphics/SVG/1.1/DTD/svg11.dtd">
<!-- Generated by graphviz version 2.44.0 (0)
 -->
<!-- Title: g Pages: 1 -->
<svg width="283pt" height="158pt"
 viewBox="0.00 0.00 283.00 158.00" xmlns="http://www.w3.org/2000/svg" xmlns:xlink="http://www.w3.org/1999/xlink">
<g id="graph0" class="graph" transform="scale(1 1) rotate(0) translate(4 154)">
<title>g</title>
<polygon fill="white" stroke="transparent" points="-4,4 -4,-154 279,-154 279,4 -4,4"/>
<!-- schemaRoot -->
<g id="node1" class="node">
<title>schemaRoot</title>
<polygon fill="none" stroke="black" points="8.5,-124.5 8.5,-145.5 267.5,-145.5 267.5,-124.5 8.5,-124.5"/>
<text text-anchor="start" x="113.5" y="-131.3" font-family="Times-Roman" font-size="14.00">layerId</text>
<polygon fill="none" stroke="black" points="8.5,-90.5 8.5,-124.5 267.5,-124.5 267.5,-90.5 8.5,-90.5"/>
<text text-anchor="start" x="11.5" y="-111.3" font-family="Times-Roman" font-size="14.00">@type=https://lschema.org/Schema</text>
<text text-anchor="start" x="80" y="-97.3" font-family="Times-Roman" font-size="14.00"> &#160;</text>
<text text-anchor="start" x="90" y="-97.3" font-family="Times-Roman" font-style="italic" font-size="14.00">layer metadata</text>
</g>
<!-- layerRoot -->
<g id="node2" class="node">
<title>layerRoot</title>
<polygon fill="none" stroke="black" points="71.5,-7 71.5,-28 204.5,-28 204.5,-7 71.5,-7"/>
<text text-anchor="start" x="74.5" y="-14.8" font-family="Times-Roman" font-style="italic" font-size="14.00">layer specification</text>
</g>
<!-- schemaRoot&#45;&gt;layerRoot -->
<g id="edge1" class="edge">
<title>schemaRoot&#45;&gt;layerRoot</title>
<path fill="none" stroke="black" d="M137.5,-86.87C137.5,-73.94 137.5,-59.01 137.5,-46.44"/>
<polygon fill="black" stroke="black" points="141,-46.12 137.5,-36.12 134,-46.12 141,-46.12"/>
<text text-anchor="middle" x="163" y="-57.8" font-family="Times-Roman" font-size="14.00">ls:layer</text>
</g>
</g>
</svg>
