<?xml version="1.0" encoding="UTF-8" standalone="no"?>
<!DOCTYPE svg PUBLIC "-//W3C//DTD SVG 1.1//EN"
 "http://www.w3.org/Graphics/SVG/1.1/DTD/svg11.dtd">
<!-- Generated by graphviz version 2.44.0 (0)
 -->
<!-- Title: g Pages: 1 -->
<svg width="482pt" height="260pt"
 viewBox="0.00 0.00 481.50 260.00" xmlns="http://www.w3.org/2000/svg" xmlns:xlink="http://www.w3.org/1999/xlink">
<g id="graph0" class="graph" transform="scale(1 1) rotate(0) translate(4 256)">
<title>g</title>
<polygon fill="white" stroke="transparent" points="-4,4 -4,-256 477.5,-256 477.5,4 -4,4"/>
<!-- schemaRoot -->
<g id="node1" class="node">
<title>schemaRoot</title>
<polygon fill="none" stroke="black" points="168.5,-227 168.5,-248 303.5,-248 303.5,-227 168.5,-227"/>
<text text-anchor="start" x="202" y="-233.8" font-family="Times-Roman" font-size="14.00">schemaId</text>
<polygon fill="none" stroke="black" points="168.5,-206 168.5,-227 303.5,-227 303.5,-206 168.5,-206"/>
<text text-anchor="start" x="171.5" y="-212.8" font-family="Times-Roman" font-size="14.00">@type=ls:Schema</text>
</g>
<!-- layerRoot -->
<g id="node2" class="node">
<title>layerRoot</title>
<polygon fill="none" stroke="black" points="8.5,-126 8.5,-147 463.5,-147 463.5,-126 8.5,-126"/>
<text text-anchor="start" x="211.5" y="-132.8" font-family="Times-Roman" font-size="14.00">layerId</text>
<polygon fill="none" stroke="black" points="8.5,-105 8.5,-126 463.5,-126 463.5,-105 8.5,-105"/>
<text text-anchor="start" x="11.5" y="-111.8" font-family="Times-Roman" font-size="14.00">@type=[ls:Attribute, ls:Object, https://example.org/SomeObject]</text>
</g>
<!-- schemaRoot&#45;&gt;layerRoot -->
<g id="edge1" class="edge">
<title>schemaRoot&#45;&gt;layerRoot</title>
<path fill="none" stroke="black" d="M235.5,-201.78C235.5,-189.68 235.5,-174.81 235.5,-161.54"/>
<polygon fill="black" stroke="black" points="239,-161.31 235.5,-151.31 232,-161.31 239,-161.31"/>
<text text-anchor="middle" x="261" y="-172.8" font-family="Times-Roman" font-size="14.00">ls:layer</text>
</g>
<!-- attribute1 -->
<g id="node3" class="node">
<title>attribute1</title>
<polygon fill="none" stroke="black" points="8.5,-25 8.5,-46 218.5,-46 218.5,-25 8.5,-25"/>
<text text-anchor="start" x="96.5" y="-31.8" font-family="Times-Roman" font-size="14.00">attr1</text>
<polygon fill="none" stroke="black" points="8.5,-4 8.5,-25 218.5,-25 218.5,-4 8.5,-4"/>
<text text-anchor="start" x="11.5" y="-10.8" font-family="Times-Roman" font-size="14.00">@type=[ls:Attribute,ls:Value]</text>
</g>
<!-- layerRoot&#45;&gt;attribute1 -->
<g id="edge2" class="edge">
<title>layerRoot&#45;&gt;attribute1</title>
<path fill="none" stroke="black" d="M205.66,-100.78C189.26,-87.48 168.76,-70.84 151.26,-56.64"/>
<polygon fill="black" stroke="black" points="153.43,-53.89 143.46,-50.31 149.02,-59.33 153.43,-53.89"/>
<text text-anchor="middle" x="251.5" y="-71.8" font-family="Times-Roman" font-size="14.00">ls:object#attributes</text>
</g>
<!-- attribute2 -->
<g id="node4" class="node">
<title>attribute2</title>
<polygon fill="none" stroke="black" points="252.5,-25 252.5,-46 462.5,-46 462.5,-25 252.5,-25"/>
<text text-anchor="start" x="340.5" y="-31.8" font-family="Times-Roman" font-size="14.00">attr2</text>
<polygon fill="none" stroke="black" points="252.5,-4 252.5,-25 462.5,-25 462.5,-4 252.5,-4"/>
<text text-anchor="start" x="255.5" y="-10.8" font-family="Times-Roman" font-size="14.00">@type=[ls:Attribute,ls:Value]</text>
</g>
<!-- layerRoot&#45;&gt;attribute2 -->
<g id="edge3" class="edge">
<title>layerRoot&#45;&gt;attribute2</title>
<path fill="none" stroke="black" d="M299.31,-100.79C308.35,-95.73 317.08,-89.82 324.5,-83 331.73,-76.35 337.83,-67.74 342.73,-59.24"/>
<polygon fill="black" stroke="black" points="345.96,-60.63 347.59,-50.16 339.79,-57.33 345.96,-60.63"/>
<text text-anchor="middle" x="404.5" y="-71.8" font-family="Times-Roman" font-size="14.00">ls:object#attributes</text>
</g>
</g>
</svg>
