<?xml version="1.0" encoding="UTF-8" standalone="no"?>
<!DOCTYPE svg PUBLIC "-//W3C//DTD SVG 1.1//EN"
 "http://www.w3.org/Graphics/SVG/1.1/DTD/svg11.dtd">
<!-- Generated by graphviz version 2.44.0 (0)
 -->
<!-- Title: g Pages: 1 -->
<svg width="557pt" height="55pt"
 viewBox="0.00 0.00 557.00 55.00" xmlns="http://www.w3.org/2000/svg" xmlns:xlink="http://www.w3.org/1999/xlink">
<g id="graph0" class="graph" transform="scale(1 1) rotate(0) translate(4 51)">
<title>g</title>
<polygon fill="white" stroke="transparent" points="-4,4 -4,-51 553,-51 553,4 -4,4"/>
<!-- schemaRoot -->
<g id="node1" class="node">
<title>schemaRoot</title>
<polygon fill="none" stroke="black" points="0,-0.5 0,-46.5 145,-46.5 145,-0.5 0,-0.5"/>
<text text-anchor="middle" x="72.5" y="-31.3" font-family="Times-Roman" font-size="14.00">schemaId</text>
<polyline fill="none" stroke="black" points="0,-23.5 145,-23.5 "/>
<text text-anchor="middle" x="72.5" y="-8.3" font-family="Times-Roman" font-size="14.00">@type=ls:Schema</text>
</g>
<!-- layerRoot -->
<g id="node2" class="node">
<title>layerRoot</title>
<polygon fill="none" stroke="black" points="232,-0.5 232,-46.5 549,-46.5 549,-0.5 232,-0.5"/>
<text text-anchor="middle" x="390.5" y="-31.3" font-family="Times-Roman" font-size="14.00">layerId</text>
<polyline fill="none" stroke="black" points="232,-23.5 549,-23.5 "/>
<text text-anchor="middle" x="390.5" y="-8.3" font-family="Times-Roman" font-size="14.00">type=[ls:Attribute, ls:Object, ls:NewObject]</text>
</g>
<!-- schemaRoot&#45;&gt;layerRoot -->
<g id="edge1" class="edge">
<title>schemaRoot&#45;&gt;layerRoot</title>
<path fill="none" stroke="black" d="M145.21,-23.5C168.21,-23.5 194.75,-23.5 221.66,-23.5"/>
<polygon fill="black" stroke="black" points="221.99,-27 231.99,-23.5 221.99,-20 221.99,-27"/>
<text text-anchor="middle" x="188.5" y="-27.3" font-family="Times-Roman" font-size="14.00">ls:layer</text>
</g>
</g>
</svg>
