<?xml version="1.0" encoding="UTF-8" standalone="no"?>
<!DOCTYPE svg PUBLIC "-//W3C//DTD SVG 1.1//EN"
 "http://www.w3.org/Graphics/SVG/1.1/DTD/svg11.dtd">
<!-- Generated by graphviz version 2.44.0 (0)
 -->
<!-- Title: g Pages: 1 -->
<svg width="481pt" height="260pt"
 viewBox="0.00 0.00 481.00 260.00" xmlns="http://www.w3.org/2000/svg" xmlns:xlink="http://www.w3.org/1999/xlink">
<g id="graph0" class="graph" transform="scale(1 1) rotate(0) translate(4 256)">
<title>g</title>
<polygon fill="white" stroke="transparent" points="-4,4 -4,-256 477,-256 477,4 -4,4"/>
<!-- schemaRoot -->
<g id="node1" class="node">
<title>schemaRoot</title>
<polygon fill="none" stroke="darkgray" points="168,-227 168,-248 303,-248 303,-227 168,-227"/>
<text text-anchor="start" x="201.5" y="-233.8" font-family="Times-Roman" font-size="14.00" fill="darkgray">schemaId</text>
<polygon fill="none" stroke="darkgray" points="168,-206 168,-227 303,-227 303,-206 168,-206"/>
<text text-anchor="start" x="171" y="-212.8" font-family="Times-Roman" font-size="14.00" fill="darkgray">@type=ls:Schema</text>
</g>
<!-- layerRoot -->
<g id="node2" class="node">
<title>layerRoot</title>
<polygon fill="none" stroke="darkgray" points="24,-126 24,-147 446,-147 446,-126 24,-126"/>
<text text-anchor="start" x="210.5" y="-132.8" font-family="Times-Roman" font-size="14.00" fill="darkgray">layerId</text>
<polygon fill="none" stroke="darkgray" points="24,-105 24,-126 446,-126 446,-105 24,-105"/>
<text text-anchor="start" x="27" y="-111.8" font-family="Times-Roman" font-size="14.00" fill="darkgray">@type=[ls:Attribute, ls:Object, https://test.org/SomeObject]</text>
</g>
<!-- schemaRoot&#45;&gt;layerRoot -->
<g id="edge1" class="edge">
<title>schemaRoot&#45;&gt;layerRoot</title>
<path fill="none" stroke="darkgray" d="M235,-201.78C235,-189.68 235,-174.81 235,-161.54"/>
<polygon fill="darkgray" stroke="darkgray" points="238.5,-161.31 235,-151.31 231.5,-161.31 238.5,-161.31"/>
<text text-anchor="middle" x="260.5" y="-172.8" font-family="Times-Roman" font-size="14.00" fill="darkgray">ls:layer</text>
</g>
<!-- attribute1 -->
<g id="node3" class="node">
<title>attribute1</title>
<polygon fill="none" stroke="darkgray" points="8,-25 8,-46 218,-46 218,-25 8,-25"/>
<text text-anchor="start" x="96" y="-31.8" font-family="Times-Roman" font-size="14.00" fill="darkgray">attr1</text>
<polygon fill="none" stroke="darkgray" points="8,-4 8,-25 218,-25 218,-4 8,-4"/>
<text text-anchor="start" x="11" y="-10.8" font-family="Times-Roman" font-size="14.00" fill="darkgray">@type=[ls:Attribute,ls:Value]</text>
</g>
<!-- layerRoot&#45;&gt;attribute1 -->
<g id="edge2" class="edge">
<title>layerRoot&#45;&gt;attribute1</title>
<path fill="none" stroke="darkgray" d="M205.16,-100.78C188.76,-87.48 168.26,-70.84 150.76,-56.64"/>
<polygon fill="darkgray" stroke="darkgray" points="152.93,-53.89 142.96,-50.31 148.52,-59.33 152.93,-53.89"/>
<text text-anchor="middle" x="251" y="-71.8" font-family="Times-Roman" font-size="14.00" fill="darkgray">ls:object#attributes</text>
</g>
<!-- attribute2 -->
<g id="node4" class="node">
<title>attribute2</title>
<polygon fill="none" stroke="darkgray" points="252,-25 252,-46 462,-46 462,-25 252,-25"/>
<text text-anchor="start" x="340" y="-31.8" font-family="Times-Roman" font-size="14.00" fill="darkgray">attr2</text>
<polygon fill="none" stroke="darkgray" points="252,-4 252,-25 462,-25 462,-4 252,-4"/>
<text text-anchor="start" x="255" y="-10.8" font-family="Times-Roman" font-size="14.00" fill="darkgray">@type=[ls:Attribute,ls:Value]</text>
</g>
<!-- layerRoot&#45;&gt;attribute2 -->
<g id="edge3" class="edge">
<title>layerRoot&#45;&gt;attribute2</title>
<path fill="none" stroke="darkgray" d="M298.81,-100.79C307.85,-95.73 316.58,-89.82 324,-83 331.23,-76.35 337.33,-67.74 342.23,-59.24"/>
<polygon fill="darkgray" stroke="darkgray" points="345.46,-60.63 347.09,-50.16 339.29,-57.33 345.46,-60.63"/>
<text text-anchor="middle" x="404" y="-71.8" font-family="Times-Roman" font-size="14.00" fill="darkgray">ls:object#attributes</text>
</g>
</g>
</svg>
